<svg width="56" height="56" viewBox="0 0 56 56" fill="none" xmlns="http://www.w3.org/2000/svg">
<rect width="56" height="56" rx="28" fill="#272B30"/>
<g clip-path="url(#clip0_502_5484)">
<path d="M27.9999 44C28.767 44 29.517 43.7792 30.1548 43.3655C30.7927 42.9519 31.2898 42.3639 31.5834 41.676C31.877 40.9881 31.9538 40.2311 31.8041 39.5008C31.6545 38.7705 31.2851 38.0997 30.7426 37.5732C30.2001 37.0467 29.509 36.6882 28.7566 36.5429C28.0042 36.3977 27.2243 36.4722 26.5155 36.7572C25.8068 37.0421 25.201 37.5246 24.7748 38.1437C24.3486 38.7628 24.1211 39.4907 24.1211 40.2353C24.1211 41.2338 24.5298 42.1913 25.2572 42.8973C25.9846 43.6034 26.9712 44 27.9999 44Z" fill="white"/>
<path d="M32.2085 12H23.7721L12 43.5294H19.1273L28 19.7882L36.8533 43.5294H44L32.2085 12Z" fill="white"/>
</g>
<defs>
<clipPath id="clip0_502_5484">
<rect width="32" height="32" fill="white" transform="translate(12 12)"/>
</clipPath>
</defs>
</svg>
