<svg width="32" height="32" viewBox="0 0 32 32" fill="none" xmlns="http://www.w3.org/2000/svg">
<g id="AI" clip-path="url(#clip0_195_10839)">
<path id="Vector" d="M16 32.0001C16.7672 32.0001 17.5171 31.7793 18.1549 31.3656C18.7928 30.952 19.29 30.364 19.5835 29.6761C19.8771 28.9882 19.9539 28.2312 19.8043 27.501C19.6546 26.7707 19.2852 26.0999 18.7427 25.5734C18.2003 25.0469 17.5091 24.6883 16.7567 24.543C16.0043 24.3978 15.2244 24.4723 14.5157 24.7573C13.8069 25.0422 13.2011 25.5248 12.7749 26.1439C12.3487 26.763 12.1212 27.4908 12.1212 28.2354C12.1212 29.2339 12.5299 30.1914 13.2573 30.8975C13.9847 31.6035 14.9713 32.0001 16 32.0001Z" fill="white"/>
<path id="Vector_2" d="M20.2085 0H11.7721L0 31.5294H7.12727L16 7.78824L24.8533 31.5294H32L20.2085 0Z" fill="white"/>
</g>
<defs>
<clipPath id="clip0_195_10839">
<rect width="32" height="32" fill="white"/>
</clipPath>
</defs>
</svg>
