<svg width="32" height="32" viewBox="0 0 32 32" fill="none" xmlns="http://www.w3.org/2000/svg">
<g clip-path="url(#clip0_564_3768)">
<path d="M15.9999 32C16.767 32 17.517 31.7792 18.1548 31.3655C18.7927 30.9519 19.2898 30.3639 19.5834 29.676C19.877 28.9881 19.9538 28.2311 19.8041 27.5008C19.6545 26.7705 19.2851 26.0997 18.7426 25.5732C18.2001 25.0467 17.509 24.6882 16.7566 24.5429C16.0042 24.3977 15.2243 24.4722 14.5155 24.7572C13.8068 25.0421 13.201 25.5246 12.7748 26.1437C12.3486 26.7628 12.1211 27.4907 12.1211 28.2353C12.1211 29.2338 12.5298 30.1913 13.2572 30.8973C13.9846 31.6034 14.9712 32 15.9999 32Z" fill="#3C3779"/>
<path d="M20.2085 0H11.7721L0 31.5294H7.12727L16 7.78824L24.8533 31.5294H32L20.2085 0Z" fill="#3C3779"/>
</g>
<defs>
<clipPath id="clip0_564_3768">
<rect width="32" height="32" fill="white"/>
</clipPath>
</defs>
</svg>
