<svg width="18" height="19" viewBox="0 0 18 19" fill="none" xmlns="http://www.w3.org/2000/svg">
<g id="Frame" clip-path="url(#clip0_195_10916)">
<g id="Group">
<path id="Vector" d="M9.04014 11.7029C11.4185 11.7029 13.3645 9.75695 13.3645 7.37858V5.21641C13.3645 2.83804 11.4185 0.89209 9.04014 0.89209C6.66177 0.89209 4.71582 2.83804 4.71582 5.21641V7.37858C4.71582 9.75695 6.66177 11.7029 9.04014 11.7029ZM6.87798 5.21641C6.87798 4.02722 7.85096 3.05425 9.04014 3.05425C10.2293 3.05425 11.2023 4.02722 11.2023 5.21641V7.37858C11.2023 8.56777 10.2293 9.54074 9.04014 9.54074C7.85096 9.54074 6.87798 8.56777 6.87798 7.37858V5.21641Z" fill="white"/>
<path id="Vector_2" d="M17.5812 8.56768C17.6893 8.02714 17.2568 7.4866 16.7163 7.37849C16.1758 7.27039 15.5271 7.70282 15.5271 8.24336C14.9866 11.4866 12.2839 13.865 9.04062 13.865C5.79737 13.865 3.09467 11.4866 2.66224 8.35147C2.55413 7.70282 2.01359 7.27039 1.36494 7.37849C0.8244 7.4866 0.391967 8.02714 0.500075 8.56768C1.04062 12.4596 4.17575 15.3785 7.95953 15.919V18.1893H10.1217V15.919C13.9055 15.4866 17.0406 12.4596 17.5812 8.56768Z" fill="white"/>
</g>
</g>
<defs>
<clipPath id="clip0_195_10916">
<rect width="17.2973" height="17.2973" fill="white" transform="translate(0.391602 0.89209)"/>
</clipPath>
</defs>
</svg>
