<svg width="20" height="20" viewBox="0 0 20 20" fill="none" xmlns="http://www.w3.org/2000/svg">
<path fill-rule="evenodd" clip-rule="evenodd" d="M0.306955 2.63427C0.0311952 1.20947 1.50969 0.0874723 2.8077 0.736482L18.2044 8.4348C19.4942 9.0797 19.4942 10.9204 18.2044 11.5653L2.8077 19.2636C1.50968 19.9126 0.0311952 18.7906 0.306955 17.3659L1.7326 10.0001L0.306955 2.63427ZM3.11527 10.7501L1.77963 17.6509C1.74024 17.8544 1.95145 18.0147 2.13688 17.922L17.5335 10.2237C17.7178 10.1315 17.7178 9.8686 17.5335 9.7765L2.13688 2.07812C1.95145 1.9854 1.74024 2.1457 1.77963 2.34923L3.11527 9.2501H8.62551C9.03981 9.2501 9.37551 9.5858 9.37551 10.0001C9.37551 10.4143 9.03981 10.7501 8.62551 10.7501H3.11527Z" fill="white"/>
</svg>
