<svg width="24" height="24" viewBox="0 0 24 24" fill="none" xmlns="http://www.w3.org/2000/svg">
<g id="message-more">
<path id="union-1" fill-rule="evenodd" clip-rule="evenodd" d="M4.25 8C4.25 5.23857 6.48858 3 9.25 3H17C19.7614 3 22 5.23858 22 8V16C22 18.7614 19.7614 21 17 21H3C2.63251 21 2.29462 20.7984 2.12004 20.475C1.94546 20.1517 1.96232 19.7586 2.16395 19.4513L3.75815 17.0221C4.07904 16.5331 4.25 15.961 4.25 15.3761V8ZM9.25 5C7.59315 5 6.25 6.34314 6.25 8V15.3761C6.25 16.3509 5.96506 17.3044 5.43024 18.1194L4.85235 19H17C18.6569 19 20 17.6569 20 16V8C20 6.34315 18.6569 5 17 5H9.25Z" fill="white"/>
<g id="union-2">
<path d="M14 12C14 12.5523 13.5523 13 13 13C12.4477 13 12 12.5523 12 12C12 11.4477 12.4477 11 13 11C13.5523 11 14 11.4477 14 12Z" fill="white"/>
<path d="M18 12C18 12.5523 17.5523 13 17 13C16.4477 13 16 12.5523 16 12C16 11.4477 16.4477 11 17 11C17.5523 11 18 11.4477 18 12Z" fill="white"/>
<path d="M10 12C10 12.5523 9.55228 13 9 13C8.44772 13 8 12.5523 8 12C8 11.4477 8.44772 11 9 11C9.55228 11 10 11.4477 10 12Z" fill="white"/>
</g>
</g>
</svg>
