<svg width="24" height="24" viewBox="0 0 24 24" fill="none" xmlns="http://www.w3.org/2000/svg">
<path fill-rule="evenodd" clip-rule="evenodd" d="M7 1.25C4.92893 1.25 3.25 2.92893 3.25 5V17C3.25 19.0711 4.92893 20.75 7 20.75H15C17.0711 20.75 18.75 19.0711 18.75 17V5C18.75 2.92893 17.0711 1.25 15 1.25H7ZM4.75 5C4.75 3.75736 5.75736 2.75 7 2.75H15C16.2426 2.75 17.25 3.75736 17.25 5V17C17.25 18.2426 16.2426 19.25 15 19.25H7C5.75736 19.25 4.75 18.2426 4.75 17V5Z" fill="white"/>
<path d="M21.75 9C21.75 8.58579 21.4142 8.25 21 8.25C20.5858 8.25 20.25 8.58579 20.25 9V17.5C20.25 20.1234 18.1234 22.25 15.5 22.25H9C8.58579 22.25 8.25 22.5858 8.25 23C8.25 23.4142 8.58579 23.75 9 23.75H15.5C18.9518 23.75 21.75 20.9518 21.75 17.5V9Z" fill="white"/>
</svg>
