<svg width="20" height="22" viewBox="0 0 20 22" fill="none" xmlns="http://www.w3.org/2000/svg">
<path d="M7.34771 8.66501C7.31801 8.25187 6.95902 7.94102 6.54587 7.97071C6.13272 8.00041 5.82187 8.35941 5.85157 8.77255L6.38841 16.2412C6.4181 16.6543 6.7771 16.9652 7.19025 16.9355C7.60339 16.9058 7.91424 16.5468 7.88455 16.1337L7.34771 8.66501Z" fill="#DD473B"/>
<path d="M13.4539 7.97071C13.8671 8.00041 14.1779 8.35941 14.1482 8.77255L13.6114 16.2412C13.5817 16.6543 13.2227 16.9652 12.8095 16.9355C12.3964 16.9058 12.0855 16.5468 12.1152 16.1337L12.6521 8.66501C12.6818 8.25187 13.0408 7.94102 13.4539 7.97071Z" fill="#DD473B"/>
<path d="M10.75 8.71875C10.75 8.30454 10.4142 7.96875 10 7.96875C9.5858 7.96875 9.25 8.30454 9.25 8.71875V16.1874C9.25 16.6016 9.5858 16.9374 10 16.9374C10.4142 16.9374 10.75 16.6016 10.75 16.1874V8.71875Z" fill="#DD473B"/>
<path fill-rule="evenodd" clip-rule="evenodd" d="M5.00789 2.62695V3.50024H1.21094C0.796728 3.50024 0.460938 3.83603 0.460938 4.25024C0.460938 4.66446 0.796728 5.00024 1.21094 5.00024H1.99451L3.14773 17.6294C3.32405 19.5603 4.94326 21.0383 6.8822 21.0383H13.1212C15.0601 21.0383 16.6793 19.5603 16.8557 17.6294L18.0089 5.00024H18.7916C19.2058 5.00024 19.5416 4.66446 19.5416 4.25024C19.5416 3.83603 19.2058 3.50024 18.7916 3.50024H15.0053V2.62695C15.0053 1.17721 13.8301 0.00195312 12.3803 0.00195312H7.63289C6.18314 0.00195312 5.00789 1.17721 5.00789 2.62695ZM7.63289 1.50195C7.01157 1.50195 6.50789 2.00563 6.50789 2.62695V3.50024H13.5053V2.62695C13.5053 2.00563 13.0016 1.50195 12.3803 1.50195H7.63289ZM3.50075 5.00024L4.64151 17.493C4.74731 18.6515 5.71883 19.5383 6.8822 19.5383H13.1212C14.2846 19.5383 15.2561 18.6515 15.3619 17.493L16.5026 5.00024H3.50075Z" fill="#DD473B"/>
</svg>
